# xmcd
#
# Track frame offsets:
#	150
#	13126
#	25812
#	38269
#	51253
#	64702
#	77945
#	92212
#	105575
#	119772
#	134906
#	148846
#	160277
#	172954
#	185212
#	198833
#	212505
#	225306
#	238306
#	252166
#	262396
#	273902
#	287554
#	298899
#
# Disc length: 4154 seconds
#
# Revision: 0
# Processed by: cddbd v1.5.1PL0 Copyright (c) Steve Scherf et al.
# Submitted via: dBpowerAMP V4.0
#
DISCID=72103818
DTITLE=Julia Lee - That's What I Like
DYEAR=1944
DGENRE=Blues
TTITLE0=Come on Over to my House
TTITLE1=Gotta Gimme Whatcha Got
TTITLE2=I'll Get along Somehow
TTITLE3=A Porter's Love Song to a Chambermaid
TTITLE4=Out in the Cold Again
TTITLE5=Snatch and Grab It
TTITLE6=Nobody Knows You When You're Down and Out
TTITLE7=Mama Don't Allow It
TTITLE8=Ain't it a Crime
TTITLE9=Cold Hearted Daddy
TTITLE10=My Sin
TTITLE11=Take It or Leave It
TTITLE12=That's What I Like
TTITLE13=King Size Papa
TTITLE14=The Spinach Song
TTITLE15=Crazy World
TTITLE16=Tell Me, Daddy
TTITLE17=The Glory of Love
TTITLE18=Tonight's the Night
TTITLE19=My Man Stands Out
TTITLE20=Do You Want It
TTITLE21=Don't Come too Soon
TTITLE22=Don't Save it too Long
TTITLE23=You Ain't Got it No More
EXTD=
EXTT0=
EXTT1=
EXTT2=
EXTT3=
EXTT4=
EXTT5=
EXTT6=
EXTT7=
EXTT8=
EXTT9=
EXTT10=
EXTT11=
EXTT12=
EXTT13=
EXTT14=
EXTT15=
EXTT16=
EXTT17=
EXTT18=
EXTT19=
EXTT20=
EXTT21=
EXTT22=
EXTT23=
PLAYORDER=
